<?xml version='1.0' encoding='utf-8'?>
<mxfile host="app.diagrams.net" agent="Mozilla/5.0 (Windows NT 10.0; Win64; x64) AppleWebKit/537.36 (KHTML, like Gecko) Chrome/138.0.0.0 Safari/537.36" version="28.0.7"><diagram name="Produktionsprozess_with_storage_and_transitions" id="WWTvrGOokQbHTszkcPet"><mxGraphModel dx="1260" dy="484" grid="1" gridSize="10" guides="1" tooltips="1" connect="1" arrows="1" fold="1" page="1" pageScale="1" pageWidth="827" pageHeight="1169" math="0" shadow="0"><root><mxCell id="0" /><object label="Produktionsprozess_with_storage_and_transitions" style="layer" id="kjXNbdknxgFZG0ey-R28-6"><mxCell parent="0" /></object><mxCell id="9w9Xh2U-Y_duheg7cGsQ-67" value="" style="edgeStyle=orthogonalEdgeStyle;rounded=0;orthogonalLoop=1;jettySize=auto;html=1;" parent="kjXNbdknxgFZG0ey-R28-6" source="9w9Xh2U-Y_duheg7cGsQ-68" target="9w9Xh2U-Y_duheg7cGsQ-81" edge="1"><mxGeometry relative="1" as="geometry">
            <Array as="points">
              <mxPoint x="240" y="870" />
              <mxPoint x="240" y="870" />
            </Array>
          </mxGeometry>
        </mxCell><mxCell id="9w9Xh2U-Y_duheg7cGsQ-68" value="Ingest" style="rounded=1;whiteSpace=wrap;html=1;" parent="kjXNbdknxgFZG0ey-R28-6" vertex="1"><mxGeometry x="200" y="800" width="80" height="40" as="geometry" />
        </mxCell><mxCell id="9w9Xh2U-Y_duheg7cGsQ-91" value="" style="edgeStyle=orthogonalEdgeStyle;rounded=0;orthogonalLoop=1;jettySize=auto;html=1;" parent="kjXNbdknxgFZG0ey-R28-6" source="9w9Xh2U-Y_duheg7cGsQ-70" target="9w9Xh2U-Y_duheg7cGsQ-81" edge="1"><mxGeometry relative="1" as="geometry">
            <Array as="points">
              <mxPoint x="370" y="870" />
              <mxPoint x="370" y="870" />
            </Array>
          </mxGeometry>
        </mxCell><mxCell id="9w9Xh2U-Y_duheg7cGsQ-70" value="Schnitt" style="rounded=1;whiteSpace=wrap;html=1;" parent="kjXNbdknxgFZG0ey-R28-6" vertex="1"><mxGeometry x="320" y="800" width="80" height="40" as="geometry" />
        </mxCell><mxCell id="9w9Xh2U-Y_duheg7cGsQ-71" value="" style="edgeStyle=orthogonalEdgeStyle;rounded=0;orthogonalLoop=1;jettySize=auto;html=1;" parent="kjXNbdknxgFZG0ey-R28-6" source="9w9Xh2U-Y_duheg7cGsQ-72" target="9w9Xh2U-Y_duheg7cGsQ-81" edge="1"><mxGeometry relative="1" as="geometry">
            <Array as="points">
              <mxPoint x="490" y="850" />
              <mxPoint x="490" y="850" />
            </Array>
          </mxGeometry>
        </mxCell><mxCell id="9w9Xh2U-Y_duheg7cGsQ-72" value="Vertonung" style="rounded=1;whiteSpace=wrap;html=1;" parent="kjXNbdknxgFZG0ey-R28-6" vertex="1"><mxGeometry x="440" y="800" width="80" height="40" as="geometry" />
        </mxCell><mxCell id="9w9Xh2U-Y_duheg7cGsQ-73" value="Ausstrahlung" style="rounded=1;whiteSpace=wrap;html=1;" parent="kjXNbdknxgFZG0ey-R28-6" vertex="1"><mxGeometry x="560" y="800" width="80" height="40" as="geometry" />
        </mxCell><mxCell id="9w9Xh2U-Y_duheg7cGsQ-74" value="" style="endArrow=classic;html=1;rounded=0;entryX=0;entryY=0.75;entryDx=0;entryDy=0;" parent="kjXNbdknxgFZG0ey-R28-6" target="9w9Xh2U-Y_duheg7cGsQ-68" edge="1"><mxGeometry width="50" height="50" relative="1" as="geometry">
            <mxPoint x="160" y="840" as="sourcePoint" />
            <mxPoint x="350" y="820" as="targetPoint" />
          </mxGeometry>
        </mxCell><mxCell id="9w9Xh2U-Y_duheg7cGsQ-75" value="" style="endArrow=classic;html=1;rounded=0;entryX=0;entryY=0.5;entryDx=0;entryDy=0;" parent="kjXNbdknxgFZG0ey-R28-6" target="9w9Xh2U-Y_duheg7cGsQ-68" edge="1"><mxGeometry width="50" height="50" relative="1" as="geometry">
            <mxPoint x="160" y="820" as="sourcePoint" />
            <mxPoint x="230" y="830" as="targetPoint" />
          </mxGeometry>
        </mxCell><mxCell id="9w9Xh2U-Y_duheg7cGsQ-76" value="" style="endArrow=classic;html=1;rounded=0;entryX=0;entryY=0.25;entryDx=0;entryDy=0;" parent="kjXNbdknxgFZG0ey-R28-6" target="9w9Xh2U-Y_duheg7cGsQ-68" edge="1"><mxGeometry width="50" height="50" relative="1" as="geometry">
            <mxPoint x="160" y="800" as="sourcePoint" />
            <mxPoint x="180" y="800" as="targetPoint" />
          </mxGeometry>
        </mxCell><mxCell id="9w9Xh2U-Y_duheg7cGsQ-77" value="Rohmaterial" style="text;html=1;align=center;verticalAlign=middle;whiteSpace=wrap;rounded=0;rotation=-90;" parent="kjXNbdknxgFZG0ey-R28-6" vertex="1"><mxGeometry x="120" y="815" width="70" height="10" as="geometry" />
        </mxCell><mxCell id="9w9Xh2U-Y_duheg7cGsQ-79" value="" style="edgeStyle=orthogonalEdgeStyle;rounded=0;orthogonalLoop=1;jettySize=auto;html=1;" parent="kjXNbdknxgFZG0ey-R28-6" source="9w9Xh2U-Y_duheg7cGsQ-81" target="9w9Xh2U-Y_duheg7cGsQ-72" edge="1"><mxGeometry relative="1" as="geometry">
            <Array as="points">
              <mxPoint x="470" y="850" />
              <mxPoint x="470" y="850" />
            </Array>
          </mxGeometry>
        </mxCell><mxCell id="9w9Xh2U-Y_duheg7cGsQ-80" value="" style="edgeStyle=orthogonalEdgeStyle;rounded=0;orthogonalLoop=1;jettySize=auto;html=1;entryX=0.5;entryY=1;entryDx=0;entryDy=0;" parent="kjXNbdknxgFZG0ey-R28-6" source="9w9Xh2U-Y_duheg7cGsQ-81" target="9w9Xh2U-Y_duheg7cGsQ-73" edge="1"><mxGeometry relative="1" as="geometry">
            <Array as="points">
              <mxPoint x="600" y="860" />
              <mxPoint x="600" y="860" />
            </Array>
          </mxGeometry>
        </mxCell><mxCell id="9w9Xh2U-Y_duheg7cGsQ-90" value="" style="edgeStyle=orthogonalEdgeStyle;rounded=0;orthogonalLoop=1;jettySize=auto;html=1;" parent="kjXNbdknxgFZG0ey-R28-6" source="9w9Xh2U-Y_duheg7cGsQ-81" edge="1"><mxGeometry relative="1" as="geometry">
            <mxPoint x="350" y="840" as="targetPoint" />
            <Array as="points">
              <mxPoint x="350" y="870" />
              <mxPoint x="350" y="870" />
            </Array>
          </mxGeometry>
        </mxCell><mxCell id="9w9Xh2U-Y_duheg7cGsQ-81" value="Speichersystem" style="rounded=1;whiteSpace=wrap;html=1;" parent="kjXNbdknxgFZG0ey-R28-6" vertex="1"><mxGeometry x="200" y="880" width="440" height="40" as="geometry" />
        </mxCell><mxCell id="9w9Xh2U-Y_duheg7cGsQ-82" value="" style="endArrow=none;html=1;rounded=0;strokeWidth=2;strokeColor=#FF0000;" parent="kjXNbdknxgFZG0ey-R28-6" edge="1"><mxGeometry width="50" height="50" relative="1" as="geometry">
            <mxPoint x="200" y="845" as="sourcePoint" />
            <mxPoint x="200" y="795" as="targetPoint" />
          </mxGeometry>
        </mxCell><mxCell id="9w9Xh2U-Y_duheg7cGsQ-83" value="" style="endArrow=none;html=1;rounded=0;strokeWidth=2;strokeColor=#4D9900;" parent="kjXNbdknxgFZG0ey-R28-6" edge="1"><mxGeometry width="50" height="50" relative="1" as="geometry">
            <mxPoint x="250" y="840" as="sourcePoint" />
            <mxPoint x="230" y="840" as="targetPoint" />
          </mxGeometry>
        </mxCell><mxCell id="9w9Xh2U-Y_duheg7cGsQ-84" value="" style="endArrow=none;html=1;rounded=0;strokeWidth=2;strokeColor=#4D9900;" parent="kjXNbdknxgFZG0ey-R28-6" edge="1"><mxGeometry width="50" height="50" relative="1" as="geometry">
            <mxPoint x="380" y="840" as="sourcePoint" />
            <mxPoint x="360" y="840" as="targetPoint" />
          </mxGeometry>
        </mxCell><mxCell id="9w9Xh2U-Y_duheg7cGsQ-85" value="" style="endArrow=none;html=1;rounded=0;strokeWidth=2;strokeColor=#FF0000;" parent="kjXNbdknxgFZG0ey-R28-6" edge="1"><mxGeometry width="50" height="50" relative="1" as="geometry">
            <mxPoint x="340" y="840" as="sourcePoint" />
            <mxPoint x="360" y="840" as="targetPoint" />
          </mxGeometry>
        </mxCell><mxCell id="9w9Xh2U-Y_duheg7cGsQ-86" value="" style="endArrow=none;html=1;rounded=0;strokeWidth=2;strokeColor=#4D9900;" parent="kjXNbdknxgFZG0ey-R28-6" edge="1"><mxGeometry width="50" height="50" relative="1" as="geometry">
            <mxPoint x="500" y="839.73" as="sourcePoint" />
            <mxPoint x="480" y="839.73" as="targetPoint" />
          </mxGeometry>
        </mxCell><mxCell id="9w9Xh2U-Y_duheg7cGsQ-87" value="" style="endArrow=none;html=1;rounded=0;strokeWidth=2;strokeColor=#FF0000;" parent="kjXNbdknxgFZG0ey-R28-6" edge="1"><mxGeometry width="50" height="50" relative="1" as="geometry">
            <mxPoint x="460" y="839.73" as="sourcePoint" />
            <mxPoint x="480" y="839.73" as="targetPoint" />
          </mxGeometry>
        </mxCell><mxCell id="9w9Xh2U-Y_duheg7cGsQ-89" value="" style="endArrow=none;html=1;rounded=0;strokeWidth=2;strokeColor=#FF0000;" parent="kjXNbdknxgFZG0ey-R28-6" edge="1"><mxGeometry width="50" height="50" relative="1" as="geometry">
            <mxPoint x="590" y="840" as="sourcePoint" />
            <mxPoint x="610" y="840" as="targetPoint" />
          </mxGeometry>
        </mxCell><mxCell id="9w9Xh2U-Y_duheg7cGsQ-92" value="" style="endArrow=none;html=1;rounded=0;strokeWidth=2;strokeColor=#FF0000;" parent="kjXNbdknxgFZG0ey-R28-6" edge="1"><mxGeometry width="50" height="50" relative="1" as="geometry">
            <mxPoint x="360" y="880" as="sourcePoint" />
            <mxPoint x="380" y="880" as="targetPoint" />
          </mxGeometry>
        </mxCell><mxCell id="9w9Xh2U-Y_duheg7cGsQ-93" value="" style="endArrow=none;html=1;rounded=0;strokeWidth=2;strokeColor=#FF0000;" parent="kjXNbdknxgFZG0ey-R28-6" edge="1"><mxGeometry width="50" height="50" relative="1" as="geometry">
            <mxPoint x="480" y="880" as="sourcePoint" />
            <mxPoint x="500" y="880" as="targetPoint" />
          </mxGeometry>
        </mxCell><mxCell id="9w9Xh2U-Y_duheg7cGsQ-94" value="" style="endArrow=none;html=1;rounded=0;strokeWidth=2;strokeColor=#FF0000;" parent="kjXNbdknxgFZG0ey-R28-6" edge="1"><mxGeometry width="50" height="50" relative="1" as="geometry">
            <mxPoint x="230" y="880" as="sourcePoint" />
            <mxPoint x="250" y="880" as="targetPoint" />
          </mxGeometry>
        </mxCell><mxCell id="9w9Xh2U-Y_duheg7cGsQ-95" value="" style="whiteSpace=wrap;html=1;aspect=fixed;strokeColor=none;fillColor=light-dark(#ff0000, #ededed);" parent="kjXNbdknxgFZG0ey-R28-6" vertex="1"><mxGeometry x="150" y="930" width="10" height="10" as="geometry" />
        </mxCell><mxCell id="9w9Xh2U-Y_duheg7cGsQ-98" value="" style="whiteSpace=wrap;html=1;aspect=fixed;strokeColor=none;fillColor=light-dark(#4D9900,#EDEDED);" parent="kjXNbdknxgFZG0ey-R28-6" vertex="1"><mxGeometry x="420" y="930" width="10" height="10" as="geometry" />
        </mxCell><mxCell id="9w9Xh2U-Y_duheg7cGsQ-100" value="Überprüfen eines Sicherheitsmerkmals" style="text;html=1;align=left;verticalAlign=middle;whiteSpace=wrap;rounded=0;" parent="kjXNbdknxgFZG0ey-R28-6" vertex="1"><mxGeometry x="160" y="930" width="210" height="10" as="geometry" />
        </mxCell><mxCell id="9w9Xh2U-Y_duheg7cGsQ-101" value="Hinzufügen eines Sicherheitsmerkmals" style="text;html=1;align=left;verticalAlign=middle;whiteSpace=wrap;rounded=0;" parent="kjXNbdknxgFZG0ey-R28-6" vertex="1"><mxGeometry x="430" y="930" width="210" height="10" as="geometry" />
        </mxCell></root></mxGraphModel></diagram></mxfile>